<svg width="939" height="450" viewBox="0 0 939 450" fill="none" xmlns="http://www.w3.org/2000/svg">
<path d="M134.568 152.76C153.08 152.76 169.575 156.795 184.052 164.864C198.767 172.933 210.277 184.325 218.584 199.04C226.891 213.755 231.044 230.724 231.044 249.948C231.044 269.172 226.891 286.26 218.584 301.212C210.277 315.927 198.767 327.319 184.052 335.388C169.575 343.457 153.08 347.492 134.568 347.492C121.515 347.492 109.529 345.237 98.612 340.728C87.932 336.219 78.9133 329.455 71.556 320.436V345H29.192V80.848H73.692V178.036C81.2867 169.729 90.1867 163.44 100.392 159.168C110.835 154.896 122.227 152.76 134.568 152.76ZM129.584 309.4C145.96 309.4 159.369 303.941 169.812 293.024C180.492 282.107 185.832 267.748 185.832 249.948C185.832 232.148 180.492 217.789 169.812 206.872C159.369 195.955 145.96 190.496 129.584 190.496C118.904 190.496 109.292 192.988 100.748 197.972C92.204 202.719 85.44 209.601 80.456 218.62C75.472 227.639 72.98 238.081 72.98 249.948C72.98 261.815 75.472 272.257 80.456 281.276C85.44 290.295 92.204 297.296 100.748 302.28C109.292 307.027 118.904 309.4 129.584 309.4ZM413.997 182.664C426.813 162.728 449.36 152.76 481.637 152.76V195.124C477.84 194.412 474.399 194.056 471.313 194.056C453.988 194.056 440.46 199.159 430.729 209.364C420.999 219.332 416.133 233.809 416.133 252.796V345H371.633V154.896H413.997V182.664ZM703.837 80.848V345H661.117V320.436C653.76 329.455 644.622 336.219 633.705 340.728C623.025 345.237 611.158 347.492 598.105 347.492C579.83 347.492 563.336 343.457 548.621 335.388C534.144 327.319 522.752 315.927 514.445 301.212C506.138 286.26 501.985 269.172 501.985 249.948C501.985 230.724 506.138 213.755 514.445 199.04C522.752 184.325 534.144 172.933 548.621 164.864C563.336 156.795 579.83 152.76 598.105 152.76C610.684 152.76 622.194 154.896 632.637 159.168C643.08 163.44 651.98 169.848 659.337 178.392V80.848H703.837ZM603.445 309.4C614.125 309.4 623.737 307.027 632.281 302.28C640.825 297.296 647.589 290.295 652.573 281.276C657.557 272.257 660.049 261.815 660.049 249.948C660.049 238.081 657.557 227.639 652.573 218.62C647.589 209.601 640.825 202.719 632.281 197.972C623.737 192.988 614.125 190.496 603.445 190.496C592.765 190.496 583.153 192.988 574.609 197.972C566.065 202.719 559.301 209.601 554.317 218.62C549.333 227.639 546.841 238.081 546.841 249.948C546.841 261.815 549.333 272.257 554.317 281.276C559.301 290.295 566.065 297.296 574.609 302.28C583.153 307.027 592.765 309.4 603.445 309.4ZM762.051 154.896H806.551V345H762.051V154.896ZM784.479 123.568C776.41 123.568 769.646 121.076 764.187 116.092C758.729 110.871 755.999 104.463 755.999 96.868C755.999 89.2733 758.729 82.984 764.187 78C769.646 72.7787 776.41 70.168 784.479 70.168C792.549 70.168 799.313 72.66 804.771 77.644C810.23 82.3907 812.959 88.4427 812.959 95.8C812.959 103.632 810.23 110.277 804.771 115.736C799.55 120.957 792.786 123.568 784.479 123.568ZM864.958 80.848H909.458V345H864.958V80.848Z" fill="black"/>
<path d="M254.074 195.398V153.74H326.648V345H280.012V195.398H254.074Z" fill="#4286F5"/>
<circle cx="298" cy="98" r="27" fill="#4286F5"/>
</svg>
